# xmcd CD database file
#
# Track frame offsets:
#	150
#	17009
#	32801
#	51341
#	72918
#	90511
#	110503
#	126539
#	150012
#	173259
#	196390
#	229927
#
# Disc length: 3086 seconds
#
# Revision: 4
# Processed by: cddbd v1.5.2PL0 Copyright (c) Steve Scherf et al.
# Submitted via: CDex 1.51
#
DISCID=930c0c0c
DTITLE=Chris Cagle - Chris Cagle
DYEAR=2003
DGENRE=Country
TTITLE0=What A Beautiful Day
TTITLE1=Chicks Dig It
TTITLE2=Look What I Found
TTITLE3=I Love It When She Does That
TTITLE4=Night On The Country
TTITLE5=I'd Be Lying
TTITLE6=Everything
TTITLE7=It Takes Two
TTITLE8=Growin' Love
TTITLE9=Just Love Me
TTITLE10=Look At What I've Done
TTITLE11=Data Track
EXTD=YEAR: 2003
EXTT0=
EXTT1=
EXTT2=
EXTT3=
EXTT4=
EXTT5=
EXTT6=
EXTT7=
EXTT8=
EXTT9=
EXTT10=
EXTT11=
PLAYORDER=
